HIERARCHY
ROOT Hips
{
  OFFSET -35.2597 29.1586 114.425
  CHANNELS 6 Xposition Yposition Zposition Zrotation Xrotation Yrotation
  JOINT LeftUpLeg
  {
    OFFSET 8.64259 1.95398 -2.38835
    CHANNELS 3 Zrotation Xrotation Yrotation
    JOINT LeftLeg
    {
      OFFSET 43.7702 0 0
      CHANNELS 3 Zrotation Xrotation Yrotation
      JOINT LeftFoot
      {
        OFFSET 40.6238 0 0
        CHANNELS 3 Zrotation Xrotation Yrotation
        JOINT LeftToeBase
        {
          OFFSET 12.7242 0 0
          CHANNELS 3 Zrotation Xrotation Yrotation
          End Site
          {
            OFFSET 0 0 0
          }
        }
      }
    }
  }
  JOINT RightUpLeg
  {
    OFFSET -8.2249 1.95398 -2.59336
    CHANNELS 3 Zrotation Xrotation Yrotation
    JOINT RightLeg
    {
      OFFSET 43.5653 0 0
      CHANNELS 3 Zrotation Xrotation Yrotation
      JOINT RightFoot
      {
        OFFSET 40.6238 0 0
        CHANNELS 3 Zrotation Xrotation Yrotation
        JOINT RightToeBase
        {
          OFFSET 12.7242 0 0
          CHANNELS 3 Zrotation Xrotation Yrotation
          End Site
          {
            OFFSET 0 0 0
          }
        }
      }
    }
  }
  JOINT Spine
  {
    OFFSET 0.165834 0.87714 6.61349
    CHANNELS 3 Zrotation Xrotation Yrotation
    JOINT Spine1
    {
      OFFSET 7.38963 1.71661e-005 0
      CHANNELS 3 Zrotation Xrotation Yrotation
      JOINT Spine2
      {
        OFFSET 11.9445 1.14441e-005 0
        CHANNELS 3 Zrotation Xrotation Yrotation
        JOINT Spine3
        {
          OFFSET 14.7254 4.19617e-005 0
          CHANNELS 3 Zrotation Xrotation Yrotation
          JOINT Spine4
          {
            OFFSET 10.9679 0 0
            CHANNELS 3 Zrotation Xrotation Yrotation
            JOINT RightShoulder
            {
              OFFSET 2.46616 -1.6653 3.69651
              CHANNELS 3 Zrotation Xrotation Yrotation
              JOINT RightArm
              {
                OFFSET 13.0012 0 0
                CHANNELS 3 Zrotation Xrotation Yrotation
                JOINT RightForeArm
                {
                  OFFSET 28.7848 1.62311e-005 0
                  CHANNELS 3 Zrotation Xrotation Yrotation
                  JOINT RightHand
                  {
                    OFFSET 26.5688 1.62095e-005 0
                    CHANNELS 3 Zrotation Xrotation Yrotation
                    End Site
                    {
                      OFFSET 0 0 0
                    }
                  }
                }
              }
            }
            JOINT LeftShoulder
            {
              OFFSET 2.38034 -1.29275 -3.7523
              CHANNELS 3 Zrotation Xrotation Yrotation
              JOINT LeftArm
              {
                OFFSET 16.3182 6.07031e-005 0
                CHANNELS 3 Zrotation Xrotation Yrotation
                JOINT LeftForeArm
                {
                  OFFSET 27.0901 0 0
                  CHANNELS 3 Zrotation Xrotation Yrotation
                  JOINT LeftHand
                  {
                    OFFSET 24.5451 1.51738e-005 0
                    CHANNELS 3 Zrotation Xrotation Yrotation
                    End Site
                    {
                      OFFSET 0 0 0
                    }
                  }
                }
              }
            }
            JOINT Neck
            {
              OFFSET 5.0226 -0.0266342 0
              CHANNELS 3 Zrotation Xrotation Yrotation
              JOINT Head
              {
                OFFSET 6.69364 2.86102e-005 0
                CHANNELS 3 Zrotation Xrotation Yrotation
                End Site
                {
                  OFFSET 0 0 0
                }
              }
            }
          }
        }
      }
    }
  }
}
MOTION
Frames:	12
Frame Time:	0.0416667
-220.147 71.0214 -220.98 -17.3523 -53.1038 -18.3633 -63.5025 57.4709 10.1034 -84.1561 19.5443 -14.3834 83.4734 20.0617 12.1032 18.5666 2.79504 -13.6987 -175.58 55.5022 65.579 -73.8434 -2.13731 -5.39624 98.4594 -22.7014 10.5581 48.0032 -6.44665 -14.2461 0.266689 11.7277 -90.9288 3.41614 0.163025 -1.81679 -8.25614 0.0829349 -1.8222 -30.782 0.701431 -1.68387 -10.7694 0.70143 -1.68387 82.1271 -27.9709 -123.163 6.56944 28.7412 -49.8405 -8.2678 -66.5447 -7.78477 -37.0591 -2.19295 1.04343 -93.7094 -33.0504 67.5928 -16.3739 -19.0203 -76.3126 4.20093 49.4295 -5.28164 17.3416 1.22004 3.36499 28.1199 -1.52606 -1.44568 12.5878 -0.386109 4.06511 
-226.657 68.9637 -224.87 -7.59019 -52.0087 -11.054 -57.1374 54.3741 0.921844 -85.4711 11.3999 -13.7349 83.7972 18.948 10.6117 17.4575 -1.66829 -6.84184 -168.949 63.08 62.952 -86.6937 0.810136 -5.41396 97.5094 -23.441 7.87918 51.731 -8.42436 -14.9484 0.448253 11.9337 -90.9443 3.0068 0.522785 -1.84149 -8.66537 0.44124 -1.86272 -31.193 1.05198 -1.59934 -11.1804 1.05199 -1.59935 81.1382 -27.253 -125.521 0.579689 32.6872 -45.2946 -6.03966 -51.22 -5.93031 -49.0347 -3.0742 1.81753 -95.9929 -37.9312 65.6027 -15.7616 -20.0508 -77.9739 4.36802 51.33 -5.45086 26.418 1.04365 -0.00053991 24.8484 -0.353842 2.58276 19.4933 -0.152539 5.62623 
-232.429 66.907 -226.608 2.41471 -51.2788 -4.69122 -53.4956 52.7912 -3.5664 -85.35 15.3171 -13.0977 80.035 15.1689 8.20089 17.4388 0.602845 -10.6464 -160.836 66.326 57.1969 -96.5793 -0.585243 -5.59057 96.2771 -25.4055 2.32648 55.0882 -10.2617 -15.2055 0.443704 12.2117 -90.8605 2.45121 0.550639 -1.6709 -9.22072 0.476576 -1.69352 -31.7501 1.0273 -1.42824 -11.7375 1.02731 -1.42826 81.6145 -27.4733 -124.463 -3.06059 34.5527 -41.8178 -5.21403 -40.7251 -5.40012 -44.5746 -0.328354 -4.34434 -97.4769 -39.1648 63.6555 -15.5901 -20.4088 -79.2588 3.96003 46.3015 -5.03871 31.3293 0.0235322 -3.99334 20.185 -0.763972 6.58715 26.4714 -1.34234 5.57746 
-237.299 65.0833 -226.432 7.57871 -49.2014 -1.29652 -49.0872 49.9144 -4.1881 -84.8106 21.7116 -14.4773 77.8306 13.825 8.53549 14.5367 -0.901139 -10.0544 -157.93 69.7125 58.5787 -101.851 8.40389 -5.14498 95.4025 -25.469 1.17606 57.1509 -11.3933 -15.7056 0.836768 12.4862 -90.8141 1.9073 1.35713 -1.55629 -9.76393 1.28734 -1.6145 -32.3008 1.76209 -1.07648 -12.2881 1.76209 -1.07647 82.9585 -28.6782 -121.154 1.19186 32.4484 -46.2363 -4.2638 -23.2735 -4.99381 -71.7284 -5.36325 2.43241 -98.1661 -35.5132 60.8889 -14.8186 -21.745 -80.7811 3.85932 44.904 -4.93488 37.9713 -2.23753 -10.1769 17.4139 -2.40045 6.85549 32.3028 -1.50388 8.79776 
-240.352 64.0542 -225.416 12.1978 -48.1209 3.96187 -46.31 49.5417 -5.43769 -84.4444 26.5046 -15.2782 75.4069 12.0693 8.80742 17.4539 -2.91896 -4.78561 -165.826 71.3436 67.863 -104.748 9.16911 -4.55677 92.2804 -26.1851 -2.98351 59.0131 -12.4365 -16.5855 1.02112 12.9526 -91.038 0.977785 1.64636 -1.96391 -10.6937 1.55835 -2.03443 -33.2307 2.16042 -1.37836 -13.218 2.16041 -1.37835 83.7049 -31.8968 -117.97 -1.65349 34.8171 -46.4312 -4.30327 -24.0799 -4.99997 -66.602 0.595529 -5.9787 -96.8192 -28.6453 59.8927 -13.0032 -24.4353 -80.0823 3.36343 36.2251 -4.43424 43.3726 -4.19472 -14.1162 12.6755 -2.88416 0.224339 36.5046 2.62331 15.3975 
-241.434 64.2746 -223.962 14.7223 -49.2765 8.6296 -46.4084 51.5618 -4.75651 -84.4866 28.4181 -15.0549 75.2594 12.0678 9.03511 16.6805 -2.28666 -6.41509 -177.538 68.5424 79.0078 -104.157 7.89126 -4.15187 92.1524 -26.3814 -3.3336 60.6011 -13.2696 -15.1149 1.39585 13.4514 -91.2178 -0.0148928 2.33407 -2.25193 -11.6859 2.23271 -2.35247 -34.2302 2.90284 -1.44622 -14.2175 2.90284 -1.44621 84.9719 -32.0791 -115.517 -0.767806 34.5529 -48.0713 -3.79941 -12.6476 -4.89394 -77.2008 2.30054 -8.0254 -94.79 -23.068 60.7876 -13.0072 -24.7618 -82.0257 3.24536 33.6879 -4.31409 45.4749 -3.84234 -12.8446 12.456 -2.16343 -5.90873 34.3107 5.93726 19.5002 
-240.77 65.8549 -222.189 16.1337 -51.0002 12.8384 -48.7807 55.9081 -4.56502 -85.0863 26.126 -13.287 76.9514 12.7535 7.60447 11.7763 -0.34779 -12.7716 176.654 62.4206 84.5113 -99.6164 4.21057 -3.88189 91.7035 -26.7994 -5.13016 60.9346 -13.4053 -13.9659 1.80365 13.7162 -91.388 -0.537449 3.08894 -2.52318 -12.2074 2.97494 -2.65667 -34.7638 3.70426 -1.47761 -14.7512 3.70425 -1.4776 84.8905 -31.5793 -115.917 -1.33122 34.2485 -45.3946 -3.6681 -9.53293 -4.89173 -76.2731 -1.98352 -2.57066 -93.0248 -19.7816 62.5985 -14.7473 -22.52 -86.0485 3.43273 37.6224 -4.50431 42.8534 -1.92621 -8.77536 16.3363 -1.52953 -4.65819 29.6896 5.60187 19.8749 
-238.794 68.4622 -219.838 16.9314 -52.6657 16.5646 -54.5399 61.7583 -2.82606 -84.8766 22.4062 -11.4655 79.543 14.2744 6.93845 17.9043 0.740128 -10.606 175.759 54.3243 85.9861 -91.5187 4.36786 -3.70098 93.1359 -26.2947 -2.35776 61.2142 -13.5005 -12.7284 2.07098 13.7272 -91.4484 -0.55492 3.5998 -2.61081 -12.2238 3.48145 -2.76676 -34.7913 4.21776 -1.40712 -14.7787 4.21777 -1.40712 83.0137 -30.9244 -119.775 -4.42925 34.2822 -37.4362 -3.92021 -15.5436 -4.90933 -60.855 -6.62368 6.52892 -91.4826 -18.5521 65.2818 -15.7332 -21.4328 -91.11 4.62781 54.0228 -5.70736 29.0443 0.366653 -3.11837 19.8288 -0.186445 -2.07507 25.0919 4.95578 18.4092 
-235.436 71.5548 -216.453 20.3585 -53.3631 20.8977 -70.7967 66.4886 7.21078 -83.342 18.4652 -10.4656 83.4277 16.1939 4.55907 25.5415 2.55239 -8.10325 175.161 44.8119 84.1245 -80.4995 7.25064 -3.53076 96.6442 -24.8666 4.57216 59.0999 -12.4007 -12.7106 2.03186 13.5832 -91.4035 -0.267957 3.5358 -2.54144 -11.9369 3.42056 -2.69462 -34.5034 4.13588 -1.36023 -14.4907 4.13588 -1.36023 83.2623 -27.4288 -121.308 -8.00367 33.16 -25.8329 -4.73947 -31.9728 -5.14776 -29.1041 -2.63129 5.42242 -89.4808 -18.5174 69.7357 -14.7194 -24.209 -96.4579 5.51372 60.87 -6.60265 1.98318 -0.117717 -14.1822 23.2172 1.04556 0.4639 20.8401 4.01491 15.637 
-231.419 74.1176 -211.519 19.319 -52.5384 22.3148 -87.2689 69.8165 19.9867 -81.7946 22.2318 -10.1489 89.5376 20.4042 1.7404 21.5128 -0.748728 -5.23307 174.371 35.4126 84.1624 -66.3784 0.638586 -2.96691 94.8892 -24.4084 3.65397 57.9539 -11.8087 -11.6613 2.02895 13.1548 -91.1956 0.587087 3.60036 -2.17907 -11.0809 3.501 -2.3355 -33.6521 4.08859 -0.994944 -13.6395 4.0886 -0.994947 83.5887 -25.6067 -121.77 -14.1385 34.5999 -19.8453 -6.57095 -56.382 -6.33269 0.418341 -0.723757 -17.206 -89.4346 -20.5342 70.7804 -12.7426 -28.3236 -95.8889 6.20704 64.6947 -7.29675 -9.28206 0.812521 -20.1129 27.1145 2.49193 4.17375 17.906 2.96895 12.3382 
-225.58 77.1365 -204.881 22.0646 -50.702 24.7629 -115.896 68.1576 41.4506 -77.5636 17.5193 -10.5316 93.5907 22.5533 -0.0358232 24.0565 0.947677 -6.2645 171.897 25.4214 81.0851 -50.2493 -7.00727 -2.20091 83.1132 -18.9945 -2.33452 61.1609 -13.2072 -6.28016 1.47568 12.6757 -90.7689 1.53385 2.65197 -1.42269 -10.1353 2.58678 -1.53809 -32.6907 2.95685 -0.559336 -12.6781 2.95686 -0.559356 85.8302 -21.9742 -119.413 -5.44287 30.6483 -21.9973 -7.31234 -61.5632 -6.94314 14.5696 -2.49216 -23.4196 -88.6924 -24.9524 74.1151 -13.1907 -27.348 -95.7417 10.6883 76.2942 -11.7883 -8.23671 0.871785 -22.9916 33.3347 4.98019 7.0483 12.4383 2.76497 8.43476 
-220.492 79.4803 -196.991 17.8521 -49.8862 25.1246 -134.693 64.6299 59.8651 -72.9735 13.889 -9.83903 100.967 27.624 -1.62166 27.4218 0.998161 -3.38775 176.978 25.7761 82.9877 -51.639 -15.1687 -4.35798 65.1166 -4.63484 -1.05522 51.4599 -9.21079 -0.850239 1.4524 11.7936 -90.3295 3.2909 2.77045 -0.62557 -8.37731 2.74023 -0.746995 -30.936 2.83027 0.236647 -10.9234 2.83026 0.236639 85.7856 -24.7705 -117.807 7.22212 24.2608 -24.9093 -9.3276 -70.4309 -8.74719 12.3815 -2.60173 -27.6414 -88.4393 -27.3954 75.4696 -13.6963 -25.1596 -90.4736 20.3527 83.0433 -21.4584 -5.7355 0.644986 -29.3539 37.5 6.86502 5.29761 8.45257 4.46172 5.36991 
